<svg width="39" height="39" viewBox="0 0 39 39" fill="none" xmlns="http://www.w3.org/2000/svg">
<path d="M34.125 7.3125H4.875C4.55177 7.3125 4.24177 7.4409 4.01321 7.66946C3.78465 7.89802 3.65625 8.20802 3.65625 8.53125V29.25C3.65625 29.8965 3.91306 30.5165 4.37018 30.9736C4.8273 31.4307 5.44728 31.6875 6.09375 31.6875H32.9062C33.5527 31.6875 34.1727 31.4307 34.6298 30.9736C35.0869 30.5165 35.3438 29.8965 35.3438 29.25V8.53125C35.3438 8.20802 35.2153 7.89802 34.9868 7.66946C34.7582 7.4409 34.4482 7.3125 34.125 7.3125ZM30.9913 9.75L19.5 20.2846L8.00871 9.75H30.9913ZM32.9062 29.25H6.09375V11.3024L18.6758 22.8363C18.9007 23.0427 19.1948 23.1573 19.5 23.1573C19.8052 23.1573 20.0993 23.0427 20.3242 22.8363L32.9062 11.3024V29.25Z" fill="#0B94E8"/>
</svg>
