<svg width="420" height="310" viewBox="0 0 420 310" fill="none" xmlns="http://www.w3.org/2000/svg">
<g clip-path="url(#clip0_54_2147)">
<path d="M298.119 227.367H71.9436C69.9283 227.365 67.9962 226.564 66.5712 225.142C65.1462 223.719 64.3446 221.79 64.3423 219.778V35.8957C64.3446 33.8835 65.1462 31.9545 66.5712 30.5317C67.9962 29.1088 69.9283 28.3085 71.9436 28.3062H298.119C300.135 28.3085 302.067 29.1088 303.492 30.5317C304.917 31.9545 305.718 33.8835 305.721 35.8957V219.778C305.718 221.79 304.917 223.719 303.492 225.142C302.067 226.564 300.135 227.365 298.119 227.367Z" fill="#0B94E8" fill-opacity="0.33"/>
<path d="M77.0719 33.708C75.1307 33.7103 73.2696 34.4813 71.8969 35.8518C70.5243 37.2224 69.7522 39.0807 69.75 41.0189V214.658C69.7523 216.597 70.5244 218.455 71.8971 219.825C73.2697 221.196 75.1308 221.966 77.0719 221.969H231.88C250.024 221.948 267.418 214.743 280.248 201.933C293.077 189.124 300.294 171.756 300.314 153.64V41.0189C300.312 39.0807 299.54 37.2224 298.167 35.8518C296.795 34.4813 294.933 33.7103 292.992 33.708L77.0719 33.708Z" fill="white"/>
<path d="M256.876 111.801H215.865C215.01 111.8 214.19 111.461 213.585 110.857C212.98 110.253 212.64 109.434 212.639 108.58V88.1997C212.64 87.3457 212.98 86.5269 213.585 85.923C214.19 85.3191 215.01 84.9795 215.865 84.9785H256.876C257.731 84.9795 258.551 85.3191 259.156 85.923C259.761 86.5269 260.101 87.3457 260.102 88.1997C262.64 95.4119 263 102.265 260.102 108.58C260.101 109.434 259.761 110.253 259.156 110.857C258.551 111.461 257.731 111.8 256.876 111.801Z" fill="#0B94E8" fill-opacity="0.33"/>
<path d="M252.017 109.832H217.174C216.448 109.831 215.751 109.542 215.237 109.029C214.723 108.516 214.434 107.821 214.433 107.095V89.7797C214.434 89.0541 214.723 88.3585 215.237 87.8454C215.751 87.3324 216.448 87.0438 217.174 87.043H252.017C252.744 87.0438 253.441 87.3324 253.955 87.8454C254.469 88.3585 254.758 89.0541 254.758 89.7797C257.11 95.9464 257.488 101.782 254.758 107.095C254.758 107.821 254.469 108.516 253.955 109.029C253.441 109.542 252.744 109.831 252.017 109.832Z" fill="white"/>
<path d="M250.138 122.477H222.512C221.699 122.478 220.919 122.157 220.343 121.584C219.768 121.012 219.444 120.234 219.442 119.423C219.441 118.611 219.762 117.832 220.335 117.257C220.909 116.682 221.688 116.358 222.5 116.356H250.138C250.95 116.358 251.728 116.681 252.302 117.255C252.876 117.829 253.198 118.606 253.198 119.417C253.198 120.227 252.876 121.005 252.302 121.579C251.728 122.153 250.95 122.476 250.138 122.477Z" fill="#0B94E8" fill-opacity="0.33"/>
<path d="M231.563 91.7183C231.245 91.7194 230.941 91.846 230.716 92.0706C230.492 92.2951 230.365 92.5993 230.365 92.9166V105.889C230.365 106.098 230.42 106.304 230.524 106.486C230.629 106.667 230.78 106.818 230.961 106.923C231.142 107.029 231.348 107.084 231.558 107.085C231.768 107.086 231.974 107.032 232.157 106.928L243.624 100.4C243.808 100.295 243.961 100.143 244.068 99.9599C244.174 99.7768 244.23 99.5687 244.229 99.3569C244.229 99.1452 244.172 98.9374 244.064 98.7548C243.957 98.5722 243.803 98.4213 243.618 98.3176L232.151 91.8735C231.972 91.772 231.769 91.7186 231.563 91.7183Z" fill="#0B94E8" fill-opacity="0.33"/>
<path d="M398.867 285.181C398.234 284.378 397.375 283.782 396.401 283.471C395.426 283.16 394.381 283.148 393.399 283.436L393.184 283.499L391.259 291.005C390.97 289.886 390.353 287.361 389.964 284.889L389.93 284.685L389.739 284.769C387.726 285.657 385.834 286.796 384.107 288.158C381.048 290.608 378.559 293.695 376.815 297.202C375.071 300.709 374.112 304.554 374.007 308.468L374.003 308.612L374 308.703L374.255 308.612L379.726 306.66C382.148 306.873 384.588 306.543 386.866 305.695C389.145 304.847 391.205 303.501 392.896 301.756C395.106 299.429 396.623 296.434 398.088 293.537C398.518 292.693 398.957 291.822 399.407 290.985C399.908 290.075 400.125 289.035 400.028 288C399.932 286.965 399.527 285.983 398.867 285.181Z" fill="#F2F2F2"/>
<path d="M259.149 93.7728C259.259 94.3409 259.492 94.8782 259.833 95.3466C260.173 95.8151 260.612 96.2034 261.118 96.4841C261.625 96.7649 262.188 96.9313 262.766 96.9716C263.344 97.0119 263.924 96.9251 264.465 96.7174L280.816 115.71L282.886 108.699L266.675 91.3226C266.266 90.4383 265.545 89.7348 264.651 89.3454C263.756 88.956 262.75 88.9077 261.822 89.2097C260.895 89.5117 260.11 90.1431 259.617 90.9841C259.125 91.8251 258.958 92.8173 259.149 93.7728Z" fill="#FFB8B8"/>
<path d="M325.049 304.072H319.638L317.064 283.232H325.05L325.049 304.072Z" fill="#FFB6B6"/>
<path d="M324.905 302.308L319.127 299.961L318.962 299.894L315.772 302.308C313.971 302.308 312.244 303.023 310.97 304.294C309.696 305.566 308.981 307.29 308.981 309.089V309.309H326.428V302.308H324.905Z" fill="#2F2E41"/>
<path d="M363.652 304.072H358.241L355.666 283.232H363.653L363.652 304.072Z" fill="#FFB6B6"/>
<path d="M363.507 302.308L357.73 299.961L357.564 299.894L354.374 302.308C352.573 302.308 350.846 303.023 349.572 304.294C348.299 305.566 347.583 307.29 347.583 309.089V309.309H365.03V302.308H363.507Z" fill="#2F2E41"/>
<path d="M350.88 179.625C350.88 179.625 357.668 186.675 357.668 192.468C357.668 198.261 355.971 206.215 357.668 207.956C359.365 209.697 361.486 211.815 358.94 214.356C356.395 216.897 355.123 218.168 356.819 219.862C358.516 221.556 357.668 251.205 357.668 251.205L366.576 291.018H355.353L341.124 251.205L337.306 218.168L324.959 249.934L326.322 291.36L314.59 291.018L309.733 246.969C309.733 246.969 316.944 205.068 315.672 203.994C314.399 202.92 315.672 200.752 315.672 200.752L319.065 184.708L350.88 179.625Z" fill="#2F2E41"/>
<path d="M337.592 129.638C337.592 129.638 339.9 120.558 329.267 117.955C318.635 115.351 288.242 112.007 288.242 112.007L272.883 95.7334L267.678 103.28L284.897 124.644L325.695 133.011L337.592 129.638Z" fill="#3F3D56"/>
<path d="M270.208 102.724C270.685 102.107 271.058 101.416 271.313 100.68L273.516 95.2755L272.944 95.2517C272.153 95.1031 271.339 95.123 270.556 95.3103C269.773 95.4977 269.039 95.8481 268.401 96.3386C267.763 96.8291 267.236 97.4486 266.855 98.1566C266.473 98.8647 266.246 99.6451 266.188 100.447C266.116 101.14 266.241 101.84 266.548 102.466C266.705 102.777 266.933 103.046 267.213 103.251C267.494 103.457 267.819 103.593 268.163 103.649C268.553 103.669 268.942 103.596 269.298 103.435C269.654 103.274 269.966 103.03 270.208 102.724Z" fill="#E6E6E6"/>
<path d="M316.899 186.871L315.627 196.082C315.627 196.082 318.172 198.811 319.444 198.47C320.717 198.129 325.383 196.143 325.383 196.143C325.383 196.143 330.898 199.153 333.867 199.494C336.837 199.835 352.532 197.788 352.956 196.764C353.381 195.741 358.311 191.735 358.311 191.735L356.35 180.048L316.899 186.871Z" fill="#E6E6E6"/>
<path d="M358.229 154.648C358.229 154.648 357.152 163.53 358 164.347C358.849 165.16 357.152 170.307 355.455 173.695C353.758 177.083 356.728 177.507 356.728 180.048C356.728 182.589 358 191.907 358 191.907C358 191.907 344.85 192.755 342.729 190.637C340.608 188.519 337.214 190.213 332.548 194.872C327.882 199.531 317.748 195.719 315.627 193.602C313.506 191.484 317.277 183.86 318.549 182.382C319.822 180.904 317.323 182.615 316.051 177.93C314.778 173.246 317.277 173.695 319.398 171.577C321.519 169.459 319.398 165.647 317.701 161.836C316.004 158.024 317.277 129.646 317.277 122.869C317.277 116.092 326.609 115.245 326.609 115.245L330.304 110.608L333.019 107.198L338.338 106.986L338.478 106.982L343.624 106.774L346.122 109.68L351.637 116.092L358 117.363C363.091 119.057 361.818 129.646 361.818 129.646L358.229 154.648Z" fill="#3F3D56"/>
<path d="M338.076 105.149C344.098 105.149 348.98 100.274 348.98 94.2614C348.98 88.2485 344.098 83.374 338.076 83.374C332.054 83.374 327.172 88.2485 327.172 94.2614C327.172 100.274 332.054 105.149 338.076 105.149Z" fill="#FFB6B6"/>
<path d="M350.719 90.599C347.72 88.7625 348.104 83.9606 345.214 82.2838C343.778 81.4571 342.163 80.9892 340.507 80.9197C338.85 80.8502 337.202 81.1814 335.701 81.8849C333.666 81.0155 331.227 81.7093 329.599 83.2793C327.971 84.8493 327.089 87.1654 326.829 89.4947C326.642 91.835 326.81 94.1902 327.329 96.4802C327.49 95.5601 327.652 94.64 327.814 93.72L336.41 91.8441C335.649 92.5268 334.888 93.2094 334.127 93.8921C338.02 94.777 342.105 94.1392 345.542 92.1097C349.284 93.7848 348.606 97.5466 345.321 102.539C346.593 104.657 354.136 92.6915 350.719 90.599Z" fill="#2F2E41"/>
<path d="M346.123 109.68C346.098 109.7 346.073 109.718 346.046 109.735C345.147 110.27 344.119 110.549 343.073 110.54C341.703 110.654 340.343 110.228 339.284 109.354C338.729 108.829 336.519 109.938 335.068 110.553C333.546 111.182 331.84 111.202 330.304 110.608L333.019 107.198L337.493 106.208H338.61L343.624 106.775L346.123 109.68Z" fill="#E6E6E6"/>
<path d="M419.338 309.829L267.553 310C267.466 310 267.379 309.984 267.298 309.951C267.218 309.918 267.144 309.869 267.082 309.808C267.02 309.747 266.97 309.674 266.937 309.593C266.903 309.513 266.885 309.427 266.885 309.339C266.884 309.252 266.901 309.166 266.934 309.085C266.967 309.004 267.016 308.931 267.077 308.869C267.138 308.807 267.211 308.758 267.292 308.724C267.373 308.69 267.459 308.672 267.546 308.672H267.553L419.338 308.5C419.514 308.501 419.683 308.572 419.807 308.696C419.931 308.821 420 308.989 420 309.165C420 309.34 419.931 309.508 419.807 309.633C419.683 309.757 419.514 309.828 419.338 309.829Z" fill="#CACACA"/>
<path d="M237.597 86.8283H236.479V7.05518H280.413V8.17055H237.597V86.8283Z" fill="#3F3D56"/>
<path d="M314.581 0H284.978C283.052 0 281.205 0.763832 279.844 2.12346C278.482 3.48308 277.717 5.32712 277.717 7.24992C277.717 9.17272 278.482 11.0168 279.844 12.3764C281.205 13.736 283.052 14.4998 284.978 14.4998H314.581C316.507 14.4998 318.354 13.736 319.715 12.3764C321.077 11.0168 321.842 9.17272 321.842 7.24992C321.842 5.32712 321.077 3.48308 319.715 2.12346C318.354 0.763832 316.507 0 314.581 0Z" fill="#0B94E8"/>
<path d="M236.39 94.1264C240.075 94.1264 243.062 91.1437 243.062 87.4643C243.062 83.7849 240.075 80.8022 236.39 80.8022C232.705 80.8022 229.718 83.7849 229.718 87.4643C229.718 91.1437 232.705 94.1264 236.39 94.1264Z" fill="#0B94E8"/>
<path d="M155.986 112.498L185.258 105.734L193.66 103.793C194.711 103.55 194.274 101.935 193.223 102.178L163.951 108.941L155.549 110.882C154.498 111.125 154.935 112.74 155.986 112.498Z" fill="#F2F2F2"/>
<path d="M186.213 94.8847L201.883 102.082C202.418 102.266 202.919 102.537 203.366 102.883C203.798 103.306 203.484 103.713 203.13 104.082C202.076 105.065 200.962 105.983 199.795 106.83L193.119 112.25C192.281 112.93 193.464 114.117 194.294 113.443L200.108 108.723L203.016 106.363C203.839 105.694 204.842 105.012 205.173 103.947C205.868 101.709 203.124 100.82 201.599 100.119L194.775 96.9848L187.066 93.4443C186.095 92.998 185.234 94.435 186.213 94.8847Z" fill="#F2F2F2"/>
<path d="M402.456 149.674C399.665 147.784 396.273 147.082 392.958 146.844C389.19 146.639 385.414 146.643 381.647 146.857C377.733 147.012 373.828 147.294 369.93 147.705C366.038 148.116 362.162 148.655 358.303 149.322C354.848 149.859 351.429 150.606 348.064 151.559C344.88 152.439 341.881 153.886 339.21 155.829C336.866 157.589 335.064 159.97 334.007 162.702C332.97 165.264 332.794 168.093 333.505 170.764C333.884 172.061 334.532 173.264 335.408 174.294C336.421 175.424 337.62 176.373 338.954 177.097C341.723 178.676 344.861 179.625 347.366 181.647C348.026 182.176 348.628 182.773 349.162 183.43C349.524 183.938 350.025 184.331 350.604 184.563C351.154 184.754 351.747 184.779 352.311 184.635C352.874 184.49 353.382 184.182 353.77 183.749C354.272 183.064 354.69 182.321 355.016 181.537L356.338 178.992C356.426 178.769 356.537 178.556 356.668 178.355C356.767 178.237 356.59 178.358 356.624 178.327C356.642 178.31 356.681 178.31 356.702 178.297C356.811 178.242 356.925 178.199 357.043 178.166C358.265 177.701 359.493 177.25 360.726 176.814C365.278 175.194 369.885 173.701 374.564 172.492C376.972 171.847 379.414 171.337 381.879 170.964C385.071 170.51 388.312 170.563 391.519 170.252C394.972 169.918 398.535 169.22 401.496 167.322C403.944 165.837 405.83 163.583 406.859 160.913C407.305 159.64 407.458 158.284 407.306 156.944C406.922 153.914 404.938 151.354 402.456 149.674Z" fill="#E6E6E6"/>
<path d="M396.743 151.377C394.22 149.669 391.155 149.035 388.16 148.819C384.755 148.634 381.342 148.638 377.938 148.831C374.401 148.971 370.872 149.227 367.35 149.598C363.833 149.97 360.33 150.457 356.843 151.059C353.72 151.544 350.63 152.22 347.59 153.081C344.713 153.876 342.002 155.183 339.589 156.939C337.471 158.529 335.842 160.681 334.887 163.15C333.95 165.465 333.791 168.022 334.433 170.435C334.776 171.608 335.362 172.695 336.153 173.626C337.068 174.647 338.152 175.504 339.358 176.159C341.86 177.586 344.696 178.443 346.959 180.27C347.556 180.748 348.1 181.288 348.582 181.881C348.909 182.34 349.362 182.696 349.886 182.905C350.382 183.078 350.919 183.101 351.428 182.97C351.937 182.839 352.396 182.561 352.747 182.17C353.2 181.55 353.578 180.879 353.873 180.171L355.067 177.871C355.147 177.669 355.247 177.477 355.365 177.296C355.455 177.189 355.295 177.298 355.325 177.27C355.342 177.254 355.377 177.255 355.396 177.243C355.495 177.193 355.598 177.154 355.704 177.124C356.809 176.704 357.918 176.297 359.033 175.903C363.146 174.439 367.309 173.09 371.537 171.997C373.713 171.414 375.92 170.953 378.148 170.616C381.032 170.206 383.961 170.254 386.859 169.973C389.979 169.671 393.199 169.041 395.875 167.325C398.087 165.983 399.792 163.946 400.721 161.533C401.124 160.383 401.263 159.158 401.126 157.947C400.778 155.208 398.986 152.895 396.743 151.377Z" fill="white"/>
<path d="M391.459 154.46L350.349 162.031C350.232 162.053 350.111 162.052 349.994 162.028C349.877 162.004 349.765 161.956 349.667 161.889C349.568 161.822 349.483 161.736 349.418 161.636C349.352 161.536 349.307 161.424 349.285 161.306C349.263 161.189 349.264 161.068 349.289 160.951C349.314 160.834 349.361 160.723 349.429 160.625C349.497 160.526 349.583 160.442 349.684 160.377C349.784 160.312 349.896 160.267 350.014 160.246L350.019 160.245L391.129 152.674C391.247 152.653 391.367 152.654 391.484 152.679C391.601 152.704 391.712 152.752 391.81 152.819C391.908 152.887 391.992 152.973 392.057 153.073C392.122 153.173 392.167 153.285 392.189 153.403C392.21 153.52 392.209 153.64 392.184 153.757C392.159 153.874 392.111 153.984 392.043 154.082C391.975 154.181 391.889 154.265 391.789 154.329C391.689 154.394 391.577 154.439 391.459 154.46Z" fill="#E6E6E6"/>
<path d="M392.472 159.942L351.362 167.513C351.244 167.535 351.124 167.534 351.006 167.51C350.889 167.485 350.778 167.438 350.679 167.371C350.58 167.304 350.496 167.218 350.43 167.117C350.365 167.017 350.32 166.906 350.298 166.788C350.276 166.671 350.277 166.55 350.302 166.433C350.326 166.316 350.374 166.205 350.442 166.107C350.51 166.008 350.596 165.924 350.696 165.859C350.797 165.794 350.909 165.749 351.027 165.728L351.032 165.727L392.142 158.156C392.259 158.135 392.38 158.136 392.497 158.161C392.613 158.186 392.724 158.234 392.823 158.301C392.921 158.369 393.005 158.455 393.07 158.555C393.135 158.655 393.18 158.767 393.201 158.885C393.223 159.002 393.221 159.122 393.196 159.239C393.171 159.355 393.124 159.466 393.056 159.564C392.988 159.663 392.902 159.746 392.801 159.811C392.701 159.876 392.589 159.921 392.472 159.942Z" fill="#E6E6E6"/>
<path d="M357.165 172.112L352.375 172.995C352.138 173.037 351.894 172.985 351.696 172.848C351.498 172.711 351.362 172.502 351.318 172.266C351.275 172.029 351.327 171.785 351.463 171.587C351.599 171.389 351.808 171.253 352.045 171.208L356.835 170.326C357.072 170.283 357.317 170.336 357.515 170.472C357.713 170.609 357.849 170.819 357.892 171.055C357.936 171.291 357.884 171.536 357.748 171.734C357.611 171.932 357.402 172.068 357.165 172.112Z" fill="#E6E6E6"/>
<path d="M353.695 194.902C355.794 194.515 357.182 192.502 356.795 190.406C356.408 188.31 354.392 186.923 352.292 187.31C350.193 187.697 348.804 189.71 349.192 191.806C349.579 193.903 351.595 195.289 353.695 194.902Z" fill="#D1D3D4"/>
<path d="M140.944 110.769H105.831C104.201 110.767 102.638 110.12 101.485 108.969C100.333 107.818 99.6842 106.258 99.6823 104.63V81.5237C99.6842 79.8961 100.333 78.3358 101.485 77.1849C102.638 76.0341 104.201 75.3867 105.831 75.3848H140.944C142.574 75.3867 144.137 76.0341 145.29 77.1849C146.442 78.3358 147.091 79.8961 147.093 81.5237V104.63C147.091 106.258 146.442 107.818 145.29 108.969C144.137 110.12 142.574 110.767 140.944 110.769Z" fill="#87D1FF" fill-opacity="0.4"/>
<path d="M137.086 109.524H106.526C105.107 109.522 103.747 108.959 102.744 107.957C101.741 106.956 101.176 105.598 101.175 104.181V84.0713C101.176 82.6548 101.741 81.2968 102.744 80.2952C103.747 79.2936 105.107 78.7302 106.526 78.7285H137.086C138.504 78.7302 139.865 79.2936 140.868 80.2952C141.871 81.2968 142.435 82.6548 142.437 84.0713V104.181C142.435 105.598 141.871 106.956 140.868 107.957C139.865 108.959 138.504 109.522 137.086 109.524Z" fill="white"/>
<path d="M145.89 131.587H100.835C100.556 131.586 100.289 131.475 100.093 131.278C99.8962 131.082 99.7858 130.815 99.7858 130.537C99.7858 130.259 99.8962 129.992 100.093 129.796C100.289 129.599 100.556 129.488 100.835 129.487H145.89C146.169 129.488 146.435 129.599 146.632 129.796C146.829 129.992 146.939 130.259 146.939 130.537C146.939 130.815 146.829 131.082 146.632 131.278C146.435 131.475 146.169 131.586 145.89 131.587Z" fill="#87D1FF" fill-opacity="0.4"/>
<path d="M145.89 125.588H100.835C100.556 125.587 100.289 125.477 100.093 125.28C99.8962 125.083 99.7858 124.816 99.7858 124.538C99.7858 124.26 99.8962 123.994 100.093 123.797C100.289 123.6 100.556 123.489 100.835 123.489H145.89C146.169 123.489 146.435 123.6 146.632 123.797C146.829 123.994 146.939 124.26 146.939 124.538C146.939 124.816 146.829 125.083 146.632 125.28C146.435 125.477 146.169 125.587 145.89 125.588Z" fill="#87D1FF" fill-opacity="0.4"/>
<path d="M145.89 137.585H100.835C100.556 137.585 100.288 137.474 100.091 137.277C99.8941 137.08 99.7833 136.813 99.7833 136.535C99.7833 136.257 99.8941 135.99 100.091 135.793C100.288 135.596 100.556 135.485 100.835 135.485H145.89C146.169 135.485 146.436 135.596 146.634 135.793C146.831 135.99 146.942 136.257 146.942 136.535C146.942 136.813 146.831 137.08 146.634 137.277C146.436 137.474 146.169 137.585 145.89 137.585Z" fill="#87D1FF" fill-opacity="0.4"/>
<path d="M145.89 143.583H100.835C100.556 143.583 100.288 143.472 100.091 143.275C99.8941 143.078 99.7833 142.811 99.7833 142.533C99.7833 142.255 99.8941 141.988 100.091 141.791C100.288 141.594 100.556 141.483 100.835 141.483H145.89C146.169 141.483 146.436 141.594 146.634 141.791C146.831 141.988 146.942 142.255 146.942 142.533C146.942 142.811 146.831 143.078 146.634 143.275C146.436 143.472 146.169 143.583 145.89 143.583Z" fill="#87D1FF" fill-opacity="0.4"/>
<path d="M145.89 149.581H100.835C100.556 149.581 100.288 149.47 100.091 149.273C99.8941 149.077 99.7833 148.81 99.7833 148.531C99.7833 148.253 99.8941 147.986 100.091 147.789C100.288 147.592 100.556 147.481 100.835 147.481H145.89C146.169 147.481 146.436 147.592 146.634 147.789C146.831 147.986 146.942 148.253 146.942 148.531C146.942 148.81 146.831 149.077 146.634 149.273C146.436 149.47 146.169 149.581 145.89 149.581Z" fill="#87D1FF" fill-opacity="0.4"/>
<path d="M145.89 155.579H100.835C100.556 155.578 100.289 155.467 100.093 155.271C99.8962 155.074 99.7858 154.807 99.7858 154.529C99.7858 154.251 99.8962 153.985 100.093 153.788C100.289 153.591 100.556 153.48 100.835 153.479H145.89C146.169 153.48 146.435 153.591 146.632 153.788C146.829 153.985 146.939 154.251 146.939 154.529C146.939 154.807 146.829 155.074 146.632 155.271C146.435 155.467 146.169 155.578 145.89 155.579Z" fill="#87D1FF" fill-opacity="0.4"/>
<path d="M121.11 141.823H122.227V184.789H41.4291V183.673H121.11V141.823Z" fill="#3F3D56"/>
<path d="M7.26112 191.844H36.8641C38.7899 191.844 40.6368 191.08 41.9985 189.721C43.3602 188.361 44.1252 186.517 44.1252 184.594C44.1252 182.671 43.3602 180.827 41.9985 179.468C40.6368 178.108 38.7899 177.344 36.8641 177.344H7.26112C5.33535 177.344 3.48846 178.108 2.12673 179.468C0.765011 180.827 0 182.671 0 184.594C0 186.517 0.765011 188.361 2.12673 189.721C3.48846 191.08 5.33535 191.844 7.26112 191.844Z" fill="#0B94E8"/>
<path d="M122.446 145.06C126.131 145.06 129.119 142.078 129.119 138.398C129.119 134.719 126.131 131.736 122.446 131.736C118.761 131.736 115.774 134.719 115.774 138.398C115.774 142.078 118.761 145.06 122.446 145.06Z" fill="#0B94E8"/>
<path d="M156.934 140.25C166.73 142.329 164.238 142.734 174.034 144.813L182.47 146.603C183.525 146.827 183.814 145.179 182.758 144.955C172.962 142.876 175.454 142.47 165.658 140.391L157.222 138.601C156.167 138.377 155.878 140.026 156.934 140.25Z" fill="#F2F2F2"/>
<path d="M179.497 135.386L190.646 148.526C191.052 148.919 191.391 149.376 191.65 149.879C191.863 150.445 191.405 150.68 190.929 150.865C189.557 151.311 188.159 151.672 186.742 151.947L178.397 154.037C177.349 154.299 177.918 155.875 178.956 155.615L186.224 153.794L189.858 152.884C190.888 152.626 192.086 152.431 192.837 151.606C194.415 149.872 192.305 147.907 191.22 146.628L186.365 140.905L180.88 134.441C180.189 133.626 178.8 134.565 179.497 135.386Z" fill="#F2F2F2"/>
<path d="M214.847 192.667C223.416 192.667 230.363 185.73 230.363 177.174C230.363 168.618 223.416 161.682 214.847 161.682C206.277 161.682 199.33 168.618 199.33 177.174C199.33 185.73 206.277 192.667 214.847 192.667Z" fill="#0B94E8" fill-opacity="0.33"/>
<path d="M213.334 190.691C219.849 190.691 225.13 185.418 225.13 178.913C225.13 172.408 219.849 167.135 213.334 167.135C206.819 167.135 201.538 172.408 201.538 178.913C201.538 185.418 206.819 190.691 213.334 190.691Z" fill="white"/>
<path d="M211.218 186.977C210.95 186.977 210.686 186.914 210.446 186.795C210.206 186.675 209.998 186.501 209.837 186.287L205.604 180.652C205.468 180.471 205.369 180.265 205.312 180.045C205.256 179.826 205.244 179.598 205.276 179.374C205.307 179.15 205.383 178.934 205.499 178.74C205.614 178.545 205.767 178.375 205.948 178.239C206.129 178.103 206.336 178.004 206.555 177.948C206.775 177.891 207.003 177.879 207.228 177.911C207.452 177.943 207.668 178.018 207.863 178.134C208.058 178.249 208.228 178.401 208.365 178.582L208.366 178.584L211.135 182.27L218.248 171.617C218.374 171.429 218.535 171.267 218.724 171.141C218.912 171.014 219.123 170.926 219.346 170.882C219.568 170.837 219.797 170.837 220.02 170.881C220.242 170.925 220.454 171.012 220.643 171.138C220.832 171.263 220.994 171.425 221.12 171.613C221.246 171.801 221.334 172.012 221.378 172.235C221.422 172.457 221.423 172.685 221.378 172.908C221.334 173.13 221.246 173.341 221.12 173.529L212.654 186.209C212.501 186.438 212.295 186.628 212.053 186.761C211.812 186.895 211.542 186.968 211.266 186.976C211.25 186.976 211.234 186.977 211.218 186.977Z" fill="#0B94E8" fill-opacity="0.33"/>
<path d="M359.733 193.134C360.232 192.84 360.662 192.441 360.99 191.964C361.318 191.488 361.538 190.945 361.634 190.374C361.729 189.803 361.698 189.218 361.543 188.661C361.388 188.103 361.112 187.587 360.735 187.147L373.194 165.41L365.884 165.806L354.904 186.871C354.206 187.552 353.783 188.465 353.714 189.437C353.646 190.409 353.937 191.372 354.532 192.144C355.128 192.916 355.986 193.443 356.944 193.626C357.903 193.808 358.895 193.633 359.733 193.134Z" fill="#FFB8B8"/>
<path d="M345.7 116.94C345.7 116.94 358.895 112.704 362.289 122.869C365.682 133.034 377.091 160.565 377.091 160.565L364.834 185.554L359.319 179.625L365.213 162.259L348.245 136.846L345.7 116.94Z" fill="#3F3D56"/>
<path d="M365.254 183.002C364.857 182.331 364.353 181.729 363.763 181.22L359.552 177.174L359.318 177.695C358.887 178.374 358.604 179.136 358.487 179.931C358.371 180.727 358.425 181.538 358.645 182.311C358.865 183.085 359.246 183.803 359.763 184.419C360.28 185.035 360.922 185.535 361.646 185.886C362.265 186.21 362.962 186.354 363.658 186.301C364.005 186.271 364.339 186.159 364.635 185.975C364.93 185.791 365.177 185.539 365.356 185.242C365.52 184.887 365.597 184.499 365.579 184.11C365.561 183.72 365.45 183.34 365.254 183.002Z" fill="#E6E6E6"/>
<path d="M214.712 198.017H213.595V240.982H251.385V239.867H214.712V198.017Z" fill="#3F3D56"/>
<path d="M292.814 240.788C292.812 238.866 292.046 237.023 290.685 235.664C289.324 234.304 287.478 233.54 285.553 233.538H255.95C254.024 233.538 252.177 234.302 250.815 235.662C249.454 237.021 248.689 238.865 248.689 240.788C248.689 242.711 249.454 244.555 250.815 245.914C252.177 247.274 254.024 248.038 255.95 248.038H285.553C287.478 248.036 289.324 247.272 290.685 245.912C292.046 244.553 292.812 242.71 292.814 240.788Z" fill="#0B94E8"/>
<path d="M213.376 201.254C217.061 201.254 220.048 198.272 220.048 194.592C220.048 190.913 217.061 187.93 213.376 187.93C209.691 187.93 206.703 190.913 206.703 194.592C206.703 198.272 209.691 201.254 213.376 201.254Z" fill="#0B94E8"/>
</g>
<defs>
<clipPath id="clip0_54_2147">
<rect width="420" height="310" fill="white"/>
</clipPath>
</defs>
</svg>
